<svg xmlns="http://www.w3.org/2000/svg" viewBox="0 0 938 938" width="938" height="938">
  <style>
    .bg { fill: #e4eaf2; }
    .mark { color: #0d1526; }
    @media (prefers-color-scheme: dark) {
      .bg { fill: transparent; }
      .mark { color: #ffffff; }
    }
  </style>
  <circle class="bg" cx="469" cy="469" r="469"/>
  <g class="mark">
    <g transform="translate(0.000000,938.000000) scale(0.100000,-0.100000)"
fill="currentColor" stroke="none">
<path d="M4666 8800 c-91 -29 -136 -153 -83 -230 49 -72 54 -74 300 -81 367
-12 680 -70 1068 -199 436 -145 835 -362 1210 -659 123 -98 406 -377 523 -516
482 -572 782 -1276 862 -2024 18 -171 20 -560 4 -731 -64 -684 -315 -1339
-727 -1898 -222 -302 -559 -634 -864 -852 -541 -388 -1131 -613 -1839 -702
-163 -20 -708 -17 -885 6 -838 106 -1523 416 -2155 972 -593 523 -1020 1259
-1184 2043 -84 401 -102 751 -60 1171 34 333 108 640 235 962 44 112 94 215
252 521 66 127 15 235 -115 244 -61 5 -99 -14 -141 -69 -36 -47 -186 -340
-246 -480 -296 -694 -391 -1492 -266 -2243 72 -430 187 -783 380 -1164 404
-799 1088 -1474 1890 -1868 797 -391 1682 -516 2593 -367 568 93 1095 302
1607 639 263 172 482 358 722 613 215 228 305 339 448 557 600 912 812 1980
605 3053 -134 695 -463 1357 -941 1897 -118 134 -299 312 -434 427 -615 524
-1418 868 -2245 962 -169 19 -475 29 -514 16z"/>
<path d="M4665 8166 c-97 -36 -135 -162 -73 -241 38 -48 90 -65 209 -65 185 0
457 -35 669 -85 403 -96 863 -314 1195 -566 144 -110 178 -138 299 -257 513
-504 816 -1095 929 -1812 18 -115 21 -179 22 -435 0 -263 -3 -319 -23 -453
-76 -512 -281 -1004 -588 -1412 -376 -500 -822 -849 -1385 -1080 -602 -247
-1285 -304 -1934 -160 -430 95 -820 268 -1180 523 -411 291 -771 705 -999
1150 -218 427 -320 822 -342 1328 -7 164 -17 194 -76 225 -46 24 -132 23 -166
-3 -73 -55 -82 -107 -63 -385 32 -476 177 -972 402 -1381 295 -535 740 -1005
1249 -1319 465 -287 960 -452 1540 -514 189 -20 574 -15 780 10 977 120 1851
630 2426 1416 453 619 675 1301 676 2070 0 677 -196 1322 -574 1890 -208 314
-445 568 -770 827 -426 340 -1014 594 -1599 692 -256 43 -559 61 -624 37z"/>
<path d="M4665 7529 c-17 -4 -44 -22 -60 -39 -23 -24 -30 -41 -33 -88 -5 -69
12 -109 60 -143 28 -20 49 -24 177 -31 355 -19 627 -81 934 -212 455 -194 861
-535 1135 -953 124 -189 250 -468 312 -691 71 -251 95 -463 87 -756 -11 -370
-86 -675 -246 -1001 -132 -267 -269 -460 -481 -679 -405 -417 -883 -660 -1480
-753 -163 -25 -578 -25 -740 0 -305 47 -568 133 -828 268 -126 65 -141 71
-185 66 -86 -8 -141 -71 -140 -160 1 -89 52 -132 273 -233 427 -196 794 -278
1240 -277 369 0 703 59 1029 179 214 80 509 238 686 368 187 139 421 363 568
546 167 207 340 506 435 753 220 569 241 1270 57 1857 -101 319 -281 656 -491
920 -84 105 -322 344 -428 430 -433 350 -1016 582 -1581 630 -142 12 -258 12
-300 -1z"/>
<path d="M4676 6900 c-124 -40 -143 -214 -29 -277 34 -19 64 -24 199 -33 276
-17 480 -74 744 -206 201 -101 341 -202 495 -358 227 -229 379 -481 470 -782
62 -205 79 -322 79 -549 0 -214 -10 -297 -61 -485 -114 -426 -398 -822 -774
-1083 -146 -101 -355 -199 -541 -252 -162 -47 -261 -64 -431 -74 -158 -10
-190 -20 -230 -73 -29 -39 -34 -123 -9 -168 34 -62 70 -75 202 -74 450 5 935
181 1303 471 284 224 544 560 680 878 129 302 184 599 174 938 -11 388 -115
736 -322 1077 -305 502 -830 874 -1419 1004 -180 40 -471 65 -530 46z"/>
</g>
  </g>
</svg>
